ply
format ascii 1.0
comment zipper output
element vertex 453
property float x
property float y
property float z
property float confidence
property float intensity
element face 948
property list uchar int vertex_indices
end_header
-0.0312216 0.126304 0.00514924 0.850855 0.5 
-0.0446774 0.131204 0.00570479 0.900159 0.5 
-0.0683011 0.144828 0.0413688 0.398443 0.5 
-0.00600095 0.130398 0.0178986 0.85268 0.5 
-0.0173568 0.127613 0.00526885 0.675938 0.5 
0.0330513 0.107034 0.0319543 0.652757 0.5 
0.0400873 0.10521 0.0173419 0.708171 0.5 
-0.0301802 0.106322 0.0399745 0.454541 0.437538 
0.0304193 0.118572 0.0188068 0.533079 0.5 
-0.0640822 0.159391 -0.0169096 0.404517 0.5 
0.0447046 0.0927877 0.00507585 0.579563 0.425995 
-0.0316754 0.170395 -0.00635023 0.365607 0.5 
-0.0848523 0.134078 0.0470177 0.499575 0.5 
-0.0688547 0.122052 0.0517569 0.564827 0.5 
0.00595475 0.131024 0.0178252 0.748371 0.5 
0.0404629 0.105142 0.00640978 0.680399 0.5 
0.0387342 0.102161 -0.00463112 0.600054 0.5 
-0.0914513 0.134136 0.0171026 0.824561 0.5 
-0.0818721 0.107166 0.031016 0.690889 0.5 
-0.067218 0.156155 0.0178863 0.807492 0.5 
-0.0795687 0.152875 0.0299311 0.248168 0.41865 
0.00596007 0.122504 0.0346272 0.555044 0.354559 
-0.0516317 0.145001 0.0184804 0.691477 0.5 
-0.0779781 0.13255 0.0513494 0.566256 0.5 
-0.00590708 0.127934 0.0274623 0.271491 0.462815 
-0.0479133 0.129301 0.0269646 0.539149 0.5 
-0.082427 0.0928134 -0.00556046 0.710999 0.5 
0.01744 0.127694 0.0185348 0.530957 0.5 
-0.0906868 0.120305 0.0066804 0.635593 0.5 
-0.0294038 0.17903 -0.00787959 0.269231 0.447035 
-0.0797891 0.14376 0.0426994 0.414139 0.5 
-0.018288 0.108329 0.0415098 0.482541 0.5 
-0.0202326 0.181846 -0.0183274 0.341071 0.440034 
-0.0377039 0.167987 -0.0130391 0.396317 0.473039 
0.00582164 0.12806 0.0279016 0.350014 0.41288 
-0.0435389 0.130014 0.0175333 0.599596 0.5 
0.0188699 0.119862 0.032409 0.625269 0.5 
-0.0440101 0.167035 0.00231898 0.413994 0.469929 
-0.089811 0.132401 0.00705743 0.625486 0.5 
-0.057352 0.144989 0.0315196 0.696873 0.5 
0.0442622 0.0934526 0.0176417 0.665192 0.5 
0.0412343 0.0921731 0.0285603 0.671611 0.5 
-0.0563953 0.154565 0.016878 0.394763 0.437313 
-0.0206135 0.159773 -0.00717522 0.136389 0.380194 
-0.0729893 0.0656116 0.0181693 0.413051 0.5 
-0.0673967 0.155256 0.00581389 0.855717 0.5 
-0.0904864 0.118611 0.0412148 0.673877 0.5 
0.0273142 0.117965 0.0286191 0.635485 0.5 
0.041907 0.0916386 -0.00556945 0.585857 0.459742 
-0.0702109 0.165303 -0.0194661 0.548789 0.5 
-0.0061847 0.122729 0.034787 0.602316 0.374044 
0.0300138 0.0932786 0.0421476 0.649753 0.5 
-0.0175129 0.162126 -0.0145489 0.338176 0.5 
-0.0763977 0.171291 -0.0411021 0.256591 0.4298 
-0.0854227 0.105386 0.00339486 0.523819 0.297125 
0.0370431 0.110443 0.0207229 0.52623 0.448558 
-0.00659732 0.0427285 0.0469391 0.280725 0.5 
0.00639794 0.0437006 0.046826 0.331809 0.5 
-0.0559247 0.157606 0.00656455 0.561042 0.5 
-0.0911449 0.118816 0.0298442 0.848517 0.5 
-0.0595109 0.128352 0.0399626 0.658867 0.444043 
-0.0176335 0.127605 0.0179366 0.547632 0.5 
-0.066633 0.153831 0.0308703 0.855321 0.5 
-0.0436418 0.169438 -0.00550226 0.274377 0.177706 
-0.0572759 0.043243 0.042862 0.417977 0.459314 
-0.0763773 0.157221 -0.0168889 0.267801 0.372187 
-0.0434461 0.15605 0.00615795 0.447592 0.5 
-0.0427118 0.0421645 0.0427004 0.509262 0.5 
-0.0254201 0.0886622 0.0503827 0.608282 0.5 
-0.014179 0.12627 0.0266417 0.420759 0.5 
-0.0882582 0.0898687 0.00696625 0.753697 0.5 
-0.0688695 0.157773 -0.00687593 0.595216 0.5 
-0.0679676 0.142877 -0.00757643 0.446131 0.5 
0.0188538 0.106293 0.0416902 0.669811 0.5 
-0.036487 0.171225 0.000545037 0.438578 0.5 
-0.0664352 0.117198 -0.00987161 0.569796 0.5 
-0.0682606 0.170398 -0.0436995 0.381568 0.451091 
-0.090925 0.14605 0.0190382 0.648478 0.5 
0.00678622 0.115841 0.0388077 0.549283 0.408623 
0.0310139 0.0930696 -0.017798 0.732658 0.5 
0.0056976 0.10589 0.0435511 0.592572 0.5 
-0.0706519 0.13063 0.0502497 0.563116 0.5 
0.0059746 0.130858 0.00579479 0.795238 0.5 
0.0184217 0.0423182 0.042477 0.259499 0.426724 
0.0147876 0.0909747 0.0509658 0.654705 0.5 
-0.00598232 0.115409 0.0402027 0.615633 0.5 
-0.0811312 0.117972 -0.00359453 0.505277 0.5 
-0.0787032 0.144274 -0.00389052 0.466714 0.5 
0.00581988 0.106226 -0.0208968 0.792948 0.5 
-0.0192761 0.119853 0.0328061 0.445477 0.415699 
-0.00593116 0.130215 0.005954 0.738924 0.5 
-0.0893322 0.142745 0.0290326 0.80362 0.5 
-0.00762538 0.123273 -0.00981555 0.767738 0.284429 
-0.0692263 0.178922 -0.0542743 0.245129 0.411885 
-0.0298757 0.124252 0.0209674 0.32811 0.5 
-0.0848266 0.148987 0.0327697 0.331963 0.314683 
-0.0888516 0.0909723 0.0179034 0.603378 0.5 
-0.0305879 0.122384 -0.00635771 0.63839 0.5 
-0.0307198 0.117989 0.0306166 0.543293 0.5 
-0.0780612 0.120653 0.0513999 0.490413 0.5 
0.0332714 0.108498 -0.00743195 0.534403 0.5 
-0.0677112 0.0928918 -0.0168814 0.511499 0.5 
-0.075666 0.0911817 -0.0136967 0.429902 0.5 
-0.082422 0.0951121 0.0310878 0.678588 0.5 
-0.0856984 0.136903 0.00192122 0.517441 0.5 
-0.0292804 0.0417747 0.051397 0.553401 0.5 
-0.017732 0.0423864 0.051684 0.709553 0.5 
-0.0656987 0.171007 -0.056644 0.549906 0.5 
-0.0298523 0.170905 -0.0165609 0.436075 0.5 
-0.0562502 0.135013 0.0330455 0.727547 0.5 
-0.0666127 0.133021 0.0447044 0.724494 0.5 
-0.0425379 0.155441 -0.00749353 0.424682 0.5 
-0.0545308 0.0714603 0.0397042 0.682177 0.456916 
-0.0413159 0.0906923 -0.0225881 0.72469 0.5 
-0.0172876 0.0921774 0.0536212 0.546444 0.5 
-0.00598119 0.0940308 0.0542643 0.455087 0.5 
0.0423724 0.0672563 0.0295801 0.33948 0.5 
0.0285741 0.116909 -0.00391772 0.66246 0.5 
-0.0331811 0.0450744 0.0451146 0.432059 0.466683 
-0.0539402 0.118566 0.0353731 0.515399 0.5 
0.0422724 0.0795546 -0.00579461 0.568535 0.5 
0.0297273 0.0425502 0.0304975 0.650152 0.5 
-0.0315639 0.0959331 -0.0236801 0.474586 0.431409 
0.0381804 0.105121 0.0266947 0.534482 0.490368 
-0.0284988 0.090492 -0.0290854 0.294426 0.332222 
-0.0173189 0.0437942 0.0432695 0.576068 0.5 
0.00376754 0.0477551 0.0502037 0.495901 0.44823 
0.0432673 0.0458291 0.0278251 0.807573 0.5 
-0.0233322 0.181239 -0.0112893 0.246322 0.458572 
-0.0056258 0.0565038 0.0538818 0.61481 0.5 
0.00529431 0.0556798 0.0532881 0.560812 0.423049 
-0.0883219 0.105757 0.0172983 0.604102 0.5 
-0.0566374 0.0470184 0.0305809 0 0 
-0.0296243 0.0543188 0.0398951 0.676102 0.5 
-0.00597407 0.105897 0.0440669 0.338462 0.5 
-0.0214122 0.0546976 0.044641 0.195646 0.404388 
-0.0161488 0.0574363 0.050904 0.451613 0.5 
-0.0568305 0.146392 -0.0026426 0.48145 0.5 
-0.0931466 0.119067 0.0179948 0.570519 0.5 
-0.061862 0.158417 -0.0293026 0.690546 0.5 
-0.0855858 0.10684 0.021729 0.519516 0.5 
0.0336642 0.0540543 0.0350841 0.609925 0.5 
0.042771 0.0560351 0.031559 0.669803 0.5 
-0.0434589 0.117191 0.0317044 0.657986 0.5 
-0.0680962 0.156721 -0.0426174 0.523327 0.5 
0.0272384 0.103156 0.0397058 0.689793 0.5 
-0.0293932 0.178536 -0.0145563 0.314049 0.5 
-0.0762697 0.0912245 0.0383419 0.647987 0.457049 
-0.0191285 0.0985952 0.0456676 0.271215 0.427554 
-0.053091 0.0567402 0.0293963 0.192432 0.5 
-0.0431978 0.0555777 0.0390838 0.311543 0.5 
-0.0833055 0.115643 0.046828 0.438131 0.5 
0.0144345 0.127081 0.026297 0.479299 0.429147 
-0.0388913 0.123761 0.0249778 0.514489 0.5 
-0.0594359 0.119905 0.0399756 0.634635 0.5 
-0.0702332 0.154262 -0.0312401 0.685413 0.5 
-0.0574473 0.152576 0.0284508 0.93076 0.5 
-0.0480038 0.056366 0.0362663 0.58186 0.5 
-0.0107262 0.179662 -0.0277472 0.400699 0.458536 
-0.0882293 0.106066 0.00846756 0.477822 0.5 
-0.078994 0.153984 0.00651862 0.57436 0.5 
-0.0295675 0.126072 0.0146338 0.393422 0.5 
-0.0817356 0.15439 0.0177332 0.505065 0.5 
-0.0795469 0.104194 -0.00620274 0.528684 0.5 
-0.0248608 0.122913 0.0245429 0.379391 0.5 
-0.0664416 0.159957 -0.0533713 0.38665 0.5 
-0.0784878 0.0705283 0.0174461 0.703257 0.5 
-0.00967101 0.173225 -0.0264945 0.379771 0.5 
-0.0566284 0.0547031 0.00744563 0.270787 0.5 
-0.0184015 0.122219 -0.00775134 0.782181 0.5 
-0.0695952 0.146412 -0.018032 0.130446 0.5 
-0.0412517 0.123196 -0.00958087 0.590842 0.5 
-0.0684972 0.148194 -0.028726 0.690046 0.5 
-0.0540036 0.055543 0.0177674 0.079935 0 
-0.0169203 0.0682168 0.0531499 0.608033 0.445048 
-0.00607221 0.0677102 0.0564501 0.650491 0.470895 
0.00708728 0.0673218 0.0553369 0.748671 0.5 
-0.0143174 0.116971 0.037836 0.441459 0.5 
0.0538923 0.0557547 0.0266244 0.405493 0.41666 
0.00517855 0.0931738 0.0535873 0.395048 0.366076 
-0.0431038 0.0674388 0.0407737 0.587502 0.5 
-0.0293069 0.0680733 0.041016 0.650585 0.5 
-0.0379555 0.161954 -0.0128021 0.499753 0.5 
-0.0561165 0.0654329 0.0341979 0.277414 0.5 
-0.0761707 0.155559 -0.0059272 0.708579 0.5 
-0.0552181 0.122506 -0.00946488 0.538005 0.5 
0.0177004 0.105983 -0.0186138 0.576137 0.468722 
0.0534583 0.0656375 0.0264336 0.501229 0.5 
-0.0869152 0.0944156 0.00293118 0.494536 0.346642 
-0.0764257 0.161707 -0.0297517 0.476378 0.5 
-0.0440959 0.127453 -0.00327875 0.853498 0.5 
-0.0312919 0.0798298 0.0434944 0.693464 0.5 
-0.0549448 0.106348 -0.0185625 0.484023 0.5 
-0.0723735 0.110057 -0.00943257 0.44421 0.5 
-0.0553659 0.0919829 -0.0211783 0.619673 0.5 
-0.0488091 0.0660127 0.0373959 0.829801 0.5 
-0.0473086 0.145156 0.00688469 0.636632 0.45621 
-0.0803913 0.129634 -0.00469755 0.386393 0.5 
-0.041802 0.105934 -0.0198692 0.79815 0.5 
-0.00632139 0.0931652 -0.0328935 0.564234 0.5 
-0.00597054 0.106138 -0.0222282 0.740261 0.5 
-0.0294827 0.158293 -0.00619266 0.209483 0.5 
-0.0177953 0.106289 -0.0217771 0.723165 0.5 
-0.0885261 0.137839 0.0393964 0.651389 0.5 
-0.0674935 0.128392 -0.00863471 0.737784 0.5 
0.0463693 0.0715128 0.0216754 0.461473 0.448797 
-0.0409565 0.117168 -0.0145809 0.602235 0.5 
-0.0106656 0.167541 -0.0199013 0.359593 0.5 
-0.0532547 0.157456 -0.00281896 0.292939 0.5 
0.00530988 0.0933129 -0.0301852 0.75972 0.5 
-0.0773436 0.0727226 0.0266546 0.757943 0.5 
-0.0625087 0.149934 -0.0150319 0.415531 0.480025 
-0.0688014 0.0685726 0.0306649 0.49936 0.45677 
-0.0545252 0.0808478 -0.0201707 0.75515 0.5 
-0.0436768 0.078916 0.0428855 0.696934 0.5 
-0.0185748 0.0789703 0.0557353 0.607912 0.5 
-0.00599993 0.0794548 0.0578008 0.791265 0.5 
0.00706485 0.0811917 0.0558187 0.523043 0.5 
-0.0850269 0.146034 0.00585954 0.583528 0.5 
0.0370111 0.110397 0.00265294 0.516602 0.481774 
-0.0683084 0.0803316 0.0407109 0.610448 0.476331 
-0.055894 0.0792594 0.0435335 0.634349 0.5 
0.0381456 0.0881056 -0.0138675 0.676152 0.5 
-0.0642837 0.0396418 0.039624 0.532543 0.5 
-0.0698696 0.168536 -0.0313319 0.458525 0.324439 
-0.061796 0.155741 -0.0207923 0.443336 0.5 
-0.0622848 0.16236 -0.0396288 0.427869 0.464762 
-0.0686864 0.0923704 0.0421978 0.59211 0.5 
-0.049353 0.139298 0.0147955 0.761861 0.5 
-0.0784177 0.110126 0.0417886 0.498936 0.5 
0.0179416 0.0792747 0.0518862 0.491924 0.475524 
0.00532732 0.123661 -0.00997105 0.555015 0.5 
-0.0556774 0.0935206 0.044207 0.778337 0.5 
-0.0431924 0.0921154 0.0432689 0.605881 0.5 
-0.0298626 0.0940124 0.0444805 0.668172 0.5 
0.0205955 0.087113 0.0492325 0.678548 0.5 
0.01721 0.127663 0.00512593 0.595962 0.5 
-0.0290125 0.106719 -0.0207479 0.809584 0.5 
0.0185443 0.0948112 0.0477587 0.669841 0.5 
-0.00588676 0.116622 -0.0160049 0.826286 0.5 
-0.0528191 0.162649 0.00296711 0.343566 0.5 
0.0358078 0.0958594 -0.0120328 0.738943 0.5 
-0.0912064 0.131415 0.0295307 0.816274 0.5 
-0.067874 0.106952 0.0403725 0.481571 0.5 
-0.0441636 0.104918 0.0401706 0.648927 0.395789 
0.00749586 0.09835 0.0488255 0.46146 0.5 
-0.0554961 0.103898 0.0411405 0.529374 0.5 
-0.0669044 0.115717 0.0473479 0.429195 0.5 
-0.0501524 0.140326 0.00258818 0.569746 0.5 
-0.0554508 0.13242 -0.00485445 0.673026 0.5 
-0.014752 0.181897 -0.0262781 0.40888 0.5 
-0.029558 0.161783 -0.0143368 0.852313 0.5 
-0.0561854 0.111277 0.0373713 0.588374 0.5 
-0.040984 0.110496 0.0370883 0.553647 0.5 
-0.0320055 0.110468 0.0370438 0.565129 0.5 
0.0250033 0.110611 0.0368459 0.631257 0.5 
-0.046987 0.147434 -0.00222536 0.521986 0.5 
-0.0183407 0.0352362 0.0507938 0.291685 0.457265 
-0.0178406 0.170484 -0.0181143 0.809186 0.5 
-0.0569472 0.0349416 0.0423717 0.341981 0.5 
0.00583339 0.0351076 0.0420914 0.261253 0.345588 
-0.0428024 0.0351574 0.0416872 0.193197 0.5 
-0.066462 0.104777 -0.0148582 0.608847 0.5 
0.0257452 0.0459137 0.0381185 0.444171 0.5 
0.0379451 0.0817167 -0.0141547 0.644934 0.5 
-0.0844262 0.0797714 0.0186332 0.67606 0.5 
0.0532504 0.04759 0.0181903 0.342211 0.398387 
0.0186424 0.0536035 0.046215 0.589102 0.5 
0.00732515 0.118243 -0.0153012 0.54369 0.457314 
-0.0314704 0.157066 0.000976216 0.445666 0.44081 
0.0286229 0.056876 0.0407635 0.635463 0.446542 
0.0581591 0.0550016 0.0180254 0.474964 0.5 
0.016864 0.089935 -0.0269104 0.546403 0.5 
0.0145778 0.0585769 0.0501691 0.387785 0.5 
0.0367248 0.0918184 0.0366248 0.726421 0.5 
-0.0198801 0.166404 -0.0112699 0.688671 0.5 
0.0150294 0.0677357 0.0520671 0.554385 0.463079 
0.0210524 0.0681161 0.0484346 0.414803 0.412252 
0.0298776 0.0679936 0.0419172 0.611901 0.5 
0.0368358 0.0678495 0.036641 0.593561 0.5 
0.0574748 0.0682218 0.0171425 0.550839 0.448044 
0.0316842 0.0785087 -0.019208 0.760295 0.5 
-0.0760271 0.175704 -0.0506937 0.340571 0.5 
-0.0655396 0.0607885 0.0175707 0.414933 0.425841 
-0.0806026 0.081447 0.0306516 0.756683 0.5 
0.0189749 0.121506 -0.00694565 0.549 0.5 
0.030684 0.0795461 0.0431507 0.572664 0.5 
0.0371888 0.0792484 0.0367937 0.505468 0.5 
0.0419366 0.0795911 0.0295911 0.645662 0.5 
0.046032 0.0793694 0.0177694 0.458504 0.467907 
-0.0787921 0.0707773 0.00685585 0.704234 0.277826 
-0.0293987 0.115917 -0.0147065 0.856895 0.5 
-0.0869924 0.113518 0.00410409 0.344807 0.5 
-0.0142186 0.174013 -0.0259807 0.439072 0.5 
0.0174795 0.0352131 -0.00592856 0 0 
0.0162141 0.0358475 -0.0162131 0.173751 0.5 
0.0193248 0.0358322 0.0313206 0.156956 0.287305 
0.0435544 0.0411101 0.00579916 0.245023 0.5 
0.0226191 0.0406052 -0.00793544 0.173629 0.5 
0.0191348 0.042782 -0.0192095 0.367832 0.5 
0.0414633 0.0456301 -0.00354513 0.514406 0.5 
0.0436925 0.0411968 0.01772 0.265572 0.5 
0.0512872 0.0463959 0.00580531 0.199267 0.5 
0.0285777 0.105181 -0.0142381 0.728425 0.5 
0.0306748 0.0445124 -0.00617993 0.464947 0.5 
-0.0184118 0.0948059 -0.0307434 0.520871 0.5 
-0.0315484 0.0343023 -0.0284081 0.16856 0.5 
0.0260381 0.0475902 -0.0165794 0.515417 0.5 
0.0554197 0.0686378 0.00589653 0.629664 0.372945 
0.0520374 0.055073 -0.0024816 0.592036 0.5 
0.0567375 0.0542224 0.00512483 0.511629 0.5 
0.0428049 0.0553286 -0.00604704 0.434179 0.5 
-0.0620037 0.167422 -0.0527165 0.538383 0.466596 
0.0341128 0.0541776 -0.00948346 0.591066 0.5 
0.029518 0.0560564 -0.0175875 0.574224 0.5 
-0.0177887 0.115911 -0.0157838 0.559736 0.5 
-0.0417838 0.0357602 -0.0264107 0.0979878 0.5 
-0.00518939 0.043046 -0.0273333 0.274297 0.5 
-0.0664059 0.0343649 -0.00416668 0.135623 0.5 
0.0475414 0.0712174 0.00542617 0.590477 0.5 
0.0249138 0.0825163 -0.0245877 0.759593 0.5 
-0.0299024 0.0426031 -0.0283179 0.537642 0.5 
0.0218121 0.0515865 -0.0236492 0.56032 0.5 
-0.0271537 0.0351608 0.0509267 0.96808 0.5 
0.0161181 0.11563 -0.0145451 0.45799 0.403894 
0.031738 0.0679983 -0.0183532 0.581486 0.5 
0.0418226 0.0675201 -0.00551555 0.572144 0.5 
0.0514871 0.0637279 -0.00174794 0.518067 0.5 
-0.0893303 0.128309 0.0428023 0.633972 0.457764 
0.0459385 0.0796307 0.00579632 0.323813 0.5 
-0.0705433 0.149897 -0.0387319 0.143598 0.5 
-0.0429617 0.0430242 -0.0176288 0.371561 0.5 
-0.0719677 0.177848 -0.0474604 0.498199 0.393806 
-0.0760529 0.177651 -0.0471457 0.200482 0.341482 
0.0304173 0.118495 0.00573814 0.517745 0.5 
-0.0771451 0.167706 -0.0298798 0.259817 0.452429 
0.0202668 0.092861 -0.0237363 0.630702 0.48336 
-0.0254815 0.0798697 0.0510546 0.764034 0.5 
-0.0650541 0.0353259 0.0162237 0.352362 0.5 
-0.0647676 0.0350792 0.0294481 0.161121 0.384305 
-0.0644267 0.0414591 0.0304476 0.206373 0.5 
-0.06432 0.0352261 0.0387914 0.349097 0.5 
-0.0676 0.0340299 0.00590491 0.228898 0.5 
-0.0679534 0.0418588 0.00668394 0.30841 0.5 
-0.0573497 0.0431548 0.0200229 0 0 
-0.0634632 0.0414321 0.0142052 0.258252 0.450399 
-0.059413 0.0471382 0.00628538 0.460736 0.319245 
-0.0233834 0.0656416 0.0450976 0.709715 0.5 
-0.063538 0.071665 0.0379463 0.556494 0.5 
-0.0193036 0.0810128 -0.0384318 0.500126 0.449734 
-0.0427206 0.0343557 -0.0191302 0.176398 0.205782 
-0.00690237 0.03464 -0.0202171 0.15305 0.5 
-0.0656787 0.0408332 -0.00401793 0.169982 0.409113 
-0.0383907 0.0419218 -0.0264039 0.3765 0.5 
-0.0556585 0.0432866 -0.00758834 0.62257 0.5 
-0.0416785 0.0420276 -0.00999679 0.340556 0.5 
-0.0322294 0.0446593 -0.0167499 0.299501 0.5 
-0.0307385 0.0563307 -0.018517 0.265727 0.5 
-0.0429026 0.0561897 -0.0113043 0.555432 0.5 
-0.0550285 0.0566557 -0.00531375 0.527245 0.5 
-0.0261858 0.0568836 -0.0282694 0.366688 0.5 
-0.0552189 0.117461 -0.0133744 0.568329 0.5 
-0.0190658 0.0546695 -0.0318646 0.484351 0.5 
-0.0687629 0.0686694 -0.00654941 0.168435 0.5 
-0.0730504 0.06542 0.00552859 0.275779 0.5 
-0.0207234 0.0672793 -0.036553 0.45692 0.5 
-0.0290792 0.067426 -0.0290521 0.452259 0.5 
-0.0328056 0.0664637 -0.0195215 0.908229 0.5 
-0.0177608 0.0343319 -0.0259142 0.174612 0.215481 
-0.0773687 0.0732571 -0.00409771 0.293636 0.296358 
0.0151616 0.126104 -0.00266395 0.542796 0.5 
-0.0845255 0.0800572 0.00530702 0.615888 0.5 
-0.0793517 0.0798559 -0.00640565 0.260107 0.5 
-0.0309728 0.0794701 -0.0312475 0.64535 0.304239 
-0.0355144 0.081801 -0.0226887 0.930953 0.5 
-0.068141 0.0801227 -0.0164278 0.485274 0.5 
-0.0512932 0.034227 -0.0129013 0.159841 0.5 
0.0161924 0.080479 -0.0292174 0.750174 0.5 
-0.0144478 0.0879274 -0.0380297 0.689122 0.5 
-0.0173157 0.0432674 -0.0282906 0.230538 0.5 
-0.0193328 0.0979251 -0.024792 0.661276 0.5 
-0.0555479 0.0336816 -0.00619013 0.1361 0.5 
0.00702627 0.0978418 -0.0246055 0.732067 0.326346 
-0.0148892 0.126068 -0.00252126 0.467449 0.5 
0.0175205 0.0552114 -0.0272756 0.685576 0.5 
-0.00953661 0.0794104 -0.0379859 0.670336 0.467319 
0.00524266 0.0391336 -0.021947 0.540697 0.5 
0.0175653 0.0679339 -0.0289388 0.690366 0.5 
-0.0057907 0.128077 -0.00285105 0.714685 0.5 
0.00626556 0.128047 -0.0031705 0.574275 0.5 
0.00559979 0.0346604 -0.0179318 0.278473 0.5 
0.029824 0.0359142 0.00488977 0.290019 0.5 
0.00625193 0.0459623 -0.0263782 0.665265 0.460024 
0.0143253 0.0473484 -0.0251513 0.546545 0.456757 
0.00604086 0.0555073 -0.0304314 0.840924 0.5 
-0.00613413 0.0546372 -0.032635 0.634884 0.475184 
-0.0346694 0.057124 -0.0114953 0.102172 0.5 
-0.00684543 0.0679742 -0.0359406 0.670518 0.457134 
0.0056558 0.0676237 -0.0329199 0.79033 0.385997 
-0.0569732 0.0651628 -0.00958219 0.452904 0.5 
-0.0422796 0.0699944 -0.0161463 0.543504 0.5 
-0.0175719 0.0705473 -0.0382261 0.581028 0.470136 
-0.055586 0.0722983 -0.0161218 0.401473 0.5 
-0.0637884 0.0712697 -0.0138535 0.437166 0.5 
0.00568561 0.0790547 -0.0339189 0.719764 0.5 
-0.00338429 0.0804511 -0.0367226 0.799862 0.5 
-0.0248988 0.0815004 -0.0371078 0.39297 0.457854 
-0.0412513 0.0791378 -0.0197746 0.273711 0.5 
-0.0735819 0.0777026 -0.0122023 0.445372 0.5 
-0.018062 0.0352627 -0.0195401 0.319674 0.5 
-0.031577 0.0358487 -0.0179669 0.482378 0.5 
-0.00602034 0.0381237 -0.0145184 0.909294 0.5 
-0.0177811 0.0382546 -0.0154503 0.887215 0.5 
0.00753447 0.0355596 -0.00650063 0.962688 0.5 
0.00430437 0.0384017 -0.0071754 0.927286 0.5 
-0.00593935 0.038948 -0.00592129 0.816802 0.5 
-0.0176142 0.0386055 -0.00584508 0.759701 0.5 
-0.0430308 0.0341391 -0.00565972 0.772585 0.5 
0.0189222 0.0351076 0.00499769 0.579133 0.5 
-0.0299129 0.0383912 -0.00582677 0.752109 0.5 
0.00512066 0.0348398 0.00558498 0.588251 0.5 
0.00103528 0.0375917 0.000952222 0.441385 0.5 
-0.00584714 0.0383419 0.00590803 0.728422 0.5 
-0.0424621 0.0343144 0.00590597 0.266658 0.5 
-0.017873 0.0383166 0.00599471 0.753895 0.5 
0.028662 0.0358411 0.0187496 0.360666 0.5 
-0.055026 0.0336204 0.00583816 0.742717 0.5 
-0.0284733 0.0381489 0.00441853 0.456211 0.5 
-0.000947006 0.0357374 0.0103469 0.779853 0.5 
0.0193224 0.0351814 0.0196616 0.180494 0.5 
-0.0342325 0.033759 0.00717517 0.152905 0 
0.00536022 0.0345956 0.0179871 0.676527 0.5 
-0.000385714 0.0351459 0.0134171 0.848157 0.5 
0.0334119 0.0376179 0.0210082 0.70177 0.5 
-0.00589791 0.0381782 0.0177062 0.797449 0.5 
-0.0352445 0.0350571 0.0178257 0.572312 0.5 
-0.0178078 0.0381962 0.0178114 0.753708 0.5 
-0.0261898 0.0377592 0.0177044 0.146481 0.5 
-0.0563247 0.0336762 0.0175265 0.458851 0.5 
0.00114114 0.037661 0.0223414 0.978558 0.5 
0.0100253 0.0355029 0.029656 0.701449 0.5 
0.00550127 0.0385556 0.0296609 0.996029 0.5 
-0.00596581 0.0388946 0.0299252 0.805634 0.5 
-0.0330745 0.0355217 0.0292236 0.263742 0.5 
-0.0277717 0.0382563 0.0322865 0.074682 0.5 
-0.0179091 0.0385902 0.0296167 0.782021 0.5 
-0.0419404 0.0343698 0.0299668 0.109729 0 
0.015243 0.0356116 0.0412692 0.759188 0.5 
-0.0554301 0.0342555 0.0297952 0.808252 0.5 
-0.0660515 0.0611144 0.00585548 0.442355 0.5 
-0.00654912 0.0350372 0.0453959 0.139343 0 
-0.0307826 0.0347596 0.0432959 0.154826 0.5 
-0.0180834 0.0348142 0.0458772 0.143796 0.5 
3 164 119 98 
3 224 203 49 
3 331 352 376 
3 124 161 237 
3 61 73 69 
3 61 105 94 
3 24 54 50 
3 109 56 35 
3 27 71 152 
3 444 441 435 
3 94 94 153 
3 3 44 69 
3 24 61 89 
3 38 120 104 
3 22 34 39 
3 14 24 34 
3 290 276 371 
3 226 175 224 
3 204 158 72 
3 82 33 14 
3 13 39 23 
3 99 45 23 
3 23 54 30 
3 110 47 30 
3 166 267 371 
3 90 51 3 
3 34 36 50 
3 293 222 207 
3 80 81 85 
3 61 106 164 
3 84 134 80 
3 4 75 61 
3 132 115 64 
3 196 149 228 
3 59 116 242 
3 179 114 80 
3 265 244 371 
3 52 172 207 
3 121 130 141 
3 343 286 346 
3 232 226 220 
3 232 234 227 
3 232 240 243 
3 57 80 56 
3 57 104 126 
3 221 224 220 
3 4 52 90 
3 134 100 85 
3 176 189 175 
3 4 55 161 
3 78 50 50 
3 126 128 129 
3 56 104 129 
3 111 165 201 
3 96 179 371 
3 89 117 98 
3 123 61 55 
3 197 119 72 
3 416 416 412 
3 245 168 179 
3 21 45 36 
3 61 105 89 
3 67 88 64 
3 150 144 132 
3 384 365 325 
3 214 182 112 
3 214 226 232 
3 221 222 232 
3 244 241 232 
3 233 236 232 
3 244 247 246 
3 244 169 119 
3 252 205 119 
3 127 137 141 
3 67 116 132 
3 82 58 3 
3 112 169 214 
3 244 213 143 
3 111 194 269 
3 37 58 63 
3 133 117 67 
3 118 106 67 
3 133 154 150 
3 191 195 180 
3 181 184 180 
3 191 219 233 
3 214 213 233 
3 234 237 233 
3 234 162 244 
3 244 198 253 
3 253 165 143 
3 216 183 115 
3 181 165 133 
3 15 83 219 
3 254 199 244 
3 7 168 244 
3 74 49 63 
3 14 14 24 
3 3 32 24 
3 217 203 175 
3 85 71 50 
3 73 77 80 
3 7 120 254 
3 105 119 118 
3 1 148 196 
3 48 130 100 
3 42 79 39 
3 149 222 344 
3 135 124 105 
3 106 115 105 
3 31 91 234 
3 148 138 234 
3 89 65 7 
3 31 42 7 
3 235 183 230 
3 14 92 236 
3 106 122 135 
3 19 34 62 
3 131 115 159 
3 34 35 21 
3 82 111 236 
3 201 99 43 
3 310 299 280 
3 131 115 54 
3 271 287 280 
3 27 25 34 
3 177 99 31 
3 238 130 80 
3 130 160 175 
3 354 355 381 
3 129 145 175 
3 125 132 135 
3 251 168 201 
3 106 96 125 
3 56 107 136 
3 125 106 136 
3 129 159 174 
3 136 146 174 
3 175 202 215 
3 174 188 215 
3 115 148 215 
3 216 182 215 
3 134 83 31 
3 85 98 31 
3 50 105 177 
3 85 104 177 
3 179 168 245 
3 400 391 367 
3 263 156 121 
3 217 170 115 
3 149 115 64 
3 178 160 116 
3 142 145 116 
3 326 255 319 
3 57 136 267 
3 304 330 294 
3 355 356 359 
3 128 56 11 
3 267 223 130 
3 48 25 10 
3 301 290 266 
3 196 95 22 
3 230 177 217 
3 247 168 243 
3 110 68 13 
3 271 238 266 
3 110 123 247 
3 278 274 267 
3 48 129 329 
3 258 181 275 
3 1 142 228 
3 154 215 243 
3 154 170 247 
3 263 225 270 
3 154 108 110 
3 60 108 110 
3 154 108 110 
3 11 41 37 
3 274 110 51 
3 252 216 243 
3 119 205 243 
3 109 93 60 
3 39 50 110 
3 109 86 110 
3 32 63 29 
3 32 57 11 
3 309 307 311 
3 252 175 154 
3 73 158 255 
3 67 130 259 
3 32 63 128 
3 258 192 43 
3 154 111 60 
3 119 96 60 
3 137 214 248 
3 270 207 83 
3 235 186 84 
3 267 151 57 
3 258 100 11 
3 302 294 271 
3 51 175 235 
3 266 280 271 
3 5 99 255 
3 51 172 230 
3 51 90 73 
3 286 189 230 
3 287 282 286 
3 119 84 109 
3 10 113 289 
3 120 166 329 
3 274 204 286 
3 276 241 217 
3 10 14 15 
3 51 67 145 
3 43 85 201 
3 176 223 217 
3 143 96 119 
3 158 177 167 
3 360 346 357 
3 130 226 276 
3 122 186 237 
3 270 272 267 
3 77 111 38 
3 15 20 40 
3 280 215 178 
3 271 243 178 
3 258 166 32 
3 66 49 22 
3 279 281 278 
3 155 155 172 
3 121 175 263 
3 288 201 274 
3 287 283 274 
3 276 194 130 
3 289 261 205 
3 274 107 5 
3 288 285 279 
3 329 209 289 
3 16 112 219 
3 127 149 142 
3 273 272 276 
3 252 205 243 
3 116 179 141 
3 41 56 5 
3 116 228 279 
3 142 133 141 
3 207 132 32 
3 276 261 230 
3 101 122 163 
3 299 297 294 
3 287 284 278 
3 5 135 145 
3 131 120 70 
3 275 110 43 
3 32 147 250 
3 205 203 116 
3 73 62 78 
3 120 256 319 
3 297 329 300 
3 84 160 217 
3 17 44 38 
3 255 121 73 
3 263 205 83 
3 249 166 1 
3 286 264 277 
3 11 38 66 
3 43 118 258 
3 267 273 276 
3 279 276 270 
3 141 230 270 
3 51 121 238 
3 47 29 5 
3 201 179 269 
3 201 93 66 
3 309 307 302 
3 300 304 302 
3 182 155 251 
3 278 280 277 
3 243 247 252 
3 416 421 419 
3 96 99 70 
3 66 144 111 
3 65 196 189 
3 113 298 407 
3 144 146 155 
3 226 196 139 
3 358 385 396 
3 30 108 203 
3 226 170 144 
3 46 205 242 
3 307 303 298 
3 70 94 54 
3 103 217 284 
3 443 383 446 
3 17 28 28 
3 88 176 239 
3 72 151 211 
3 138 61 28 
3 35 88 228 
3 295 296 294 
3 18 96 140 
3 18 69 131 
3 207 172 52 
3 188 104 54 
3 104 129 197 
3 222 130 120 
3 325 321 311 
3 326 242 120 
3 54 168 292 
3 386 327 295 
3 138 71 17 
3 48 55 16 
3 59 106 17 
3 296 167 83 
3 10 22 40 
3 242 117 17 
3 225 148 211 
3 314 340 384 
3 326 311 281 
3 170 202 211 
3 17 62 77 
3 144 149 226 
3 155 130 225 
3 159 106 28 
3 172 160 170 
3 131 99 28 
3 281 222 120 
3 264 202 120 
3 139 173 225 
3 139 178 170 
3 314 317 313 
3 386 357 390 
3 292 160 28 
3 132 208 344 
3 424 422 416 
3 49 150 65 
3 314 310 304 
3 111 149 66 
3 9 51 72 
3 211 97 72 
3 306 325 353 
3 307 308 304 
3 325 316 313 
3 40 123 288 
3 289 206 288 
3 40 29 41 
3 6 57 41 
3 22 57 109 
3 165 184 76 
3 299 301 298 
3 144 128 76 
3 312 165 76 
3 376 363 331 
3 165 195 312 
3 155 219 330 
3 35 95 22 
3 45 130 160 
3 42 87 156 
3 2 34 62 
3 58 41 22 
3 49 43 9 
3 280 194 187 
3 280 200 116 
3 155 210 144 
3 280 258 205 
3 319 302 308 
3 162 86 20 
3 20 63 91 
3 329 299 280 
3 319 309 280 
3 156 86 39 
3 372 385 375 
3 190 64 0 
3 1 12 0 
3 42 41 62 
3 35 65 0 
3 190 96 97 
3 35 55 109 
3 76 118 224 
3 161 97 94 
3 49 71 155 
3 224 143 155 
3 29 34 11 
3 160 114 19 
3 76 154 53 
3 153 107 143 
3 71 62 65 
3 2 17 30 
3 62 28 2 
3 55 23 5 
3 169 58 4 
3 6 23 55 
3 35 71 153 
3 160 180 162 
3 218 152 162 
3 15 118 6 
3 334 116 6 
3 332 167 93 
3 8 20 5 
3 98 131 143 
3 94 115 98 
3 219 189 15 
3 332 247 76 
3 93 92 107 
3 100 218 219 
3 160 75 45 
3 19 67 20 
3 340 272 344 
3 45 35 42 
3 27 27 8 
3 27 37 47 
3 80 125 179 
3 45 48 58 
3 71 100 45 
3 236 90 8 
3 334 193 8 
3 332 253 333 
3 27 72 36 
3 223 209 340 
3 236 229 117 
3 152 70 36 
3 134 132 115 
3 115 126 114 
3 152 69 21 
3 5 61 55 
3 337 199 191 
3 333 236 282 
3 256 173 196 
3 135 219 347 
3 183 186 195 
3 117 213 236 
3 182 119 63 
3 354 341 352 
3 114 139 68 
3 71 107 184 
3 135 148 174 
3 191 248 337 
3 337 222 114 
3 63 93 182 
3 133 150 181 
3 135 221 181 
3 110 71 81 
3 157 173 183 
3 149 163 183 
3 227 198 220 
3 12 22 30 
3 151 99 46 
3 174 193 191 
3 99 158 46 
3 114 165 234 
3 149 152 157 
3 220 217 284 
3 79 200 336 
3 68 164 191 
3 396 370 356 
3 99 45 12 
3 328 146 12 
3 337 173 68 
3 356 370 396 
3 338 341 342 
3 223 301 339 
3 265 155 96 
3 341 301 339 
3 347 237 191 
3 182 211 201 
3 134 110 80 
3 12 82 203 
3 345 342 338 
3 147 159 103 
3 33 131 251 
3 95 69 91 
3 181 240 191 
3 345 345 343 
3 157 162 180 
3 103 116 18 
3 66 121 58 
3 345 345 346 
3 146 95 108 
3 445 338 444 
3 30 72 91 
3 124 290 374 
3 137 153 72 
3 344 342 338 
3 344 286 346 
3 12 181 328 
3 284 178 103 
3 240 114 37 
3 344 228 168 
3 314 340 322 
3 107 161 93 
3 76 79 107 
3 107 147 282 
3 282 223 333 
3 165 116 107 
3 315 269 291 
3 165 128 76 
3 407 383 367 
3 144 91 76 
3 388 290 92 
3 155 210 330 
3 144 140 53 
3 432 432 434 
3 155 163 144 
3 144 186 224 
3 189 192 53 
3 224 155 53 
3 146 69 32 
3 382 226 209 
3 331 332 350 
3 331 333 316 
3 357 363 366 
3 360 361 366 
3 367 371 373 
3 366 369 373 
3 373 385 374 
3 388 216 169 
3 170 130 155 
3 155 136 189 
3 328 207 91 
3 413 416 414 
3 356 348 358 
3 242 220 91 
3 168 286 346 
3 113 144 122 
3 124 120 122 
3 239 251 315 
3 331 348 357 
3 372 167 102 
3 375 283 102 
3 26 97 102 
3 408 385 375 
3 72 75 65 
3 170 102 65 
3 87 112 65 
3 63 61 11 
3 63 67 108 
3 370 295 231 
3 389 330 231 
3 131 96 140 
3 33 68 108 
3 368 332 321 
3 374 204 124 
3 285 292 268 
3 231 261 268 
3 336 265 186 
3 224 173 139 
3 363 368 372 
3 86 147 163 
3 208 127 111 
3 380 296 202 
3 356 345 321 
3 346 351 352 
3 346 289 354 
3 168 294 354 
3 364 341 369 
3 363 365 369 
3 290 344 372 
3 369 344 372 
3 371 156 26 
3 372 256 26 
3 70 95 26 
3 188 89 26 
3 54 81 26 
3 54 101 163 
3 54 56 86 
3 28 51 86 
3 38 107 86 
3 38 113 197 
3 104 136 87 
3 218 155 87 
3 160 144 87 
3 58 169 208 
3 240 113 63 
3 208 170 63 
3 340 179 132 
3 343 286 346 
3 400 375 357 
3 396 384 357 
3 54 125 28 
3 96 72 18 
3 346 286 343 
3 249 211 248 
3 200 203 199 
3 79 194 281 
3 327 315 309 
3 343 347 352 
3 383 313 169 
3 200 166 209 
3 285 265 324 
3 241 123 79 
3 16 65 79 
3 303 161 79 
3 323 293 451 
3 100 196 186 
3 100 65 79 
3 321 335 331 
3 236 297 370 
3 389 237 92 
3 100 167 117 
3 108 61 11 
3 186 189 79 
3 88 226 209 
3 82 236 389 
3 100 140 79 
3 45 63 71 
3 0 89 97 
3 45 85 72 
3 285 190 186 
3 137 80 58 
3 199 294 305 
3 208 134 58 
3 356 348 357 
3 305 296 202 
3 378 344 305 
3 169 192 315 
3 192 176 75 
3 361 209 75 
3 291 243 237 
3 258 253 207 
3 272 243 377 
3 324 259 268 
3 268 181 88 
3 90 289 388 
3 169 258 291 
3 97 186 291 
3 79 259 377 
3 4 185 169 
3 379 355 368 
3 200 239 315 
3 92 215 315 
3 306 327 321 
3 370 332 236 
3 48 116 79 
3 206 251 185 
3 361 251 185 
3 92 187 239 
3 356 336 331 
3 190 182 185 
3 249 208 185 
3 206 255 361 
3 198 250 361 
3 90 287 383 
3 305 222 237 
3 327 321 326 
3 4 159 383 
3 190 147 1 
3 206 251 185 
3 171 187 185 
3 202 248 237 
3 108 94 146 
3 308 309 309 
3 334 184 117 
3 90 187 389 
3 79 200 186 
3 224 204 335 
3 354 351 318 
3 231 246 239 
3 186 222 209 
3 88 161 209 
3 200 200 202 
3 327 324 319 
3 308 318 319 
3 309 316 327 
3 435 441 446 
3 199 235 202 
3 97 153 190 
3 171 158 206 
3 97 198 206 
3 237 214 206 
3 291 245 206 
3 406 278 305 
3 399 400 400 
3 373 385 407 
3 300 305 311 
3 304 309 311 
3 407 244 113 
3 208 192 256 
3 403 401 399 
3 363 388 399 
3 29 63 32 
3 403 393 402 
3 363 374 359 
3 194 195 198 
3 193 118 75 
3 400 340 407 
3 272 229 79 
3 79 227 320 
3 300 300 297 
3 294 299 304 
3 299 312 314 
3 307 307 314 
3 322 340 314 
3 377 328 325 
3 387 363 325 
3 281 326 320 
3 355 348 331 
3 101 155 262 
3 363 380 403 
3 197 159 75 
3 102 155 262 
3 299 335 322 
3 262 206 193 
3 318 338 352 
3 299 335 384 
3 299 338 322 
3 322 366 384 
3 137 200 256 
3 86 119 75 
3 186 200 336 
3 222 256 281 
3 185 207 75 
3 365 364 366 
3 386 390 393 
3 299 359 393 
3 393 390 384 
3 392 390 384 
3 394 393 387 
3 384 388 387 
3 404 389 387 
3 398 396 387 
3 404 330 377 
3 209 286 377 
3 399 386 358 
3 359 372 358 
3 101 175 262 
3 262 177 75 
3 102 193 375 
3 204 175 249 
3 31 104 134 
3 424 429 427 
3 359 357 355 
3 400 338 213 
3 204 213 185 
3 351 351 386 
3 390 376 386 
3 317 365 386 
3 392 368 394 
3 317 369 394 
3 395 397 398 
3 394 396 398 
3 397 402 404 
3 398 400 404 
3 199 271 404 
3 405 336 404 
3 268 198 239 
3 75 155 185 
3 318 341 354 
3 243 163 227 
3 397 396 405 
3 385 330 405 
3 262 216 194 
3 101 186 194 
3 18 82 96 
3 349 309 199 
3 385 311 199 
3 250 192 167 
3 293 237 167 
3 379 379 395 
3 317 364 395 
3 395 385 397 
3 362 375 397 
3 365 388 397 
3 401 378 385 
3 397 394 385 
3 375 261 213 
3 213 173 113 
3 375 223 194 
3 354 341 318 
3 342 334 318 
3 375 330 402 
3 451 385 443 
3 32 192 293 
3 258 194 293 
3 113 168 198 
3 351 376 368 
3 355 347 354 
3 339 341 344 
3 372 370 363 
3 339 340 338 
3 368 356 379 
3 360 367 379 
3 360 362 362 
3 366 364 362 
3 365 364 362 
3 406 385 401 
3 365 391 401 
3 108 139 52 
3 258 133 32 
3 305 353 406 
3 297 300 301 
3 52 137 108 
3 321 353 379 
3 384 341 314 
3 373 381 365 
3 366 368 365 
3 373 376 406 
3 349 376 406 
3 373 301 406 
3 106 178 323 
3 439 435 431 
3 18 163 229 
3 83 133 260 
3 447 263 260 
3 418 424 429 
3 439 438 434 
3 441 439 434 
3 257 229 323 
3 391 411 418 
3 435 439 444 
3 257 344 452 
3 391 368 294 
3 296 392 441 
3 440 392 441 
3 131 109 138 
3 294 334 295 
3 95 48 20 
3 428 431 434 
3 422 420 415 
3 294 376 413 
3 425 383 429 
3 414 417 415 
3 425 281 296 
3 296 389 431 
3 452 409 451 
3 296 275 447 
3 431 437 439 
3 445 442 436 
3 429 385 431 
3 450 204 106 
3 301 285 433 
3 106 272 452 
3 414 413 411 
3 390 396 386 
3 18 102 59 
3 59 111 46 
3 386 404 411 
3 301 386 425 
3 248 233 196 
3 411 413 412 
3 300 332 304 
3 422 427 424 
3 46 142 151 
3 127 183 301 
3 412 396 356 
3 295 366 390 
3 351 384 411 
3 442 208 125 
3 409 391 412 
3 247 168 13 
3 330 219 155 
3 451 212 67 
3 364 233 290 
3 290 167 166 
3 166 214 265 
3 265 253 284 
3 442 437 434 
3 229 160 151 
3 364 286 44 
3 449 259 44 
3 418 377 294 
3 363 392 364 
3 212 235 210 
3 44 140 166 
3 420 423 422 
3 44 155 210 
3 247 240 243 
3 229 192 99 
3 127 190 178 
3 56 255 260 
3 413 418 421 
3 359 297 363 
3 363 327 449 
3 415 418 416 
3 296 334 260 
3 212 239 284 
3 436 432 424 
3 351 391 412 
3 440 437 431 
3 283 180 44 
3 451 260 261 
3 168 263 449 
3 449 302 283 
3 426 362 318 
3 381 375 318 
3 212 260 220 
3 266 231 301 
3 426 369 342 
3 149 202 173 
3 149 215 283 
3 438 401 426 
3 433 326 425 
3 149 181 212 
3 414 419 422 
3 172 166 155 
3 368 345 351 
3 350 369 376 
3 67 196 261 
3 183 169 212 
3 212 224 348 
3 348 227 220 
3 432 432 434 
3 448 375 338 
3 438 408 338 
3 420 428 432 
3 112 184 220 
3 428 427 432 
3 431 432 434 
3 417 383 350 
3 422 428 434 
3 423 410 381 
3 417 407 381 
3 56 124 57 
3 451 225 118 
3 296 332 440 
3 386 404 414 
3 306 324 316 
3 448 376 339 
3 415 414 411 
3 436 439 437 
3 259 349 448 
3 297 371 391 
3 442 337 445 
3 450 336 452 
3 410 355 306 
3 341 274 223 
3 355 374 350 
3 410 372 350 
3 259 182 223 
3 410 372 350 
3 356 372 350 
3 356 374 410 
3 355 397 417 
3 247 120 99 
3 195 163 183 
3 180 162 195 
3 419 377 356 
3 301 341 297 
3 390 396 411 
3 446 384 448 
3 446 322 259 
3 434 431 422 
3 421 421 422 
3 409 375 306 
3 368 361 306 
3 412 393 410 
3 409 410 410 
3 442 441 436 
3 435 429 430 
